{"title":"[ShepardTDS] Dusk Maiden of Amnesia Dual Audio [720p 8-bit x265","uid":12845811,"size":2241405843,"categoryP":"video","categoryS":"tv_shows","magnet":"?xt=urn:btih:922cafc4f69ee19cf44bf8fa18f62562c19678c5&amp;dn=%5BShepardTDS%5D+Dusk+Maiden+of+Amnesia+Dual+Audio+%5B720p+8-bit+x265+&amp;tr=udp%3A%2F%2Ftracker.leechers-paradise.org%3A6969&amp;tr=udp%3A%2F%2Fzer0day.ch%3A1337&amp;tr=udp%3A%2F%2Fopen.demonii.com%3A1337&amp;tr=udp%3A%2F%2Ftracker.coppersurfer.tk%3A6969&amp;tr=udp%3A%2F%2Fexodus.desync.com%3A6969","seeders":0,"leechers":2,"uploader":"ShepardTDS","files":17,"time":1448553896,"description":"[url=http://extraimago.com/image/YBV][img]http://extraimago.com/images/2015/11/26/66557_front.md.jpg[/img][/url]\r\n\r\nConstant Quality encoding.\r\nVariable Bit rates\r\nED and OP included\r\nBlu-Ray Source\r\n\r\n[url=http://extraimago.com/image/YBu][img]http://extraimago.com/images/2015/11/26/sample1.th.jpg[/img][/url]\r\n\r\n[url=http://extraimago.com/image/YBv][img]http://extraimago.com/images/2015/11/26/sample2.th.jpg[/img][/url]\r\n\r\nGeneral\r\n\r\nFormat : Matroska\r\nFile size : 137 MiB-202 MiB\r\nDuration : 23mn 43s\r\nOverall bit rate : 808 Kbps-1,191 Kbps\r\nEncoded date : UTC 2015-11-19 21:04:55\r\nWriting application : mkvmerge v7.7.0 ('Six Voices') 32bit built on Feb 28 2015 23:23:00\r\nWriting library : libebml v1.3.1 + libmatroska v1.4.2\r\n\r\nVideo\r\nID : 1\r\nFormat : V_MPEGH/ISO/HEVC\r\nCodec ID : V_MPEGH/ISO/HEVC\r\nDuration : 23mn 43s\r\nBit rate : 408 Kbps-783 Kbps\r\nWidth : 1 280 pixels\r\nHeight : 720 pixels\r\nDisplay aspect ratio : 16:9\r\nFrame rate : 23.976 fps\r\nBits/(Pixel*Frame) : 0.018\r\nStream size : 69.2 MiB (50%)\r\n\r\nAudio #1\r\nID : 2\r\nFormat : AC-3\r\nFormat/Info : Audio Coding 3\r\nMode extension : CM (complete main)\r\nCodec ID : A_AC3\r\nDuration : 23mn 43s\r\nBit rate mode : Constant\r\nBit rate : 192 Kbps\r\nChannel(s) : 2 channels\r\nChannel positions : Front: L R\r\nSampling rate : 48.0 KHz\r\nBit depth : 16 bits\r\nCompression mode : Lossy\r\nStream size : 32.6 MiB (24%)\r\nLanguage : English\r\n\r\nAudio #2\r\nID : 3\r\nFormat : AC-3\r\nFormat/Info : Audio Coding 3\r\nMode extension : CM (complete main)\r\nCodec ID : A_AC3\r\nDuration : 23mn 43s\r\nBit rate mode : Constant\r\nBit rate : 192 Kbps\r\nChannel(s) : 2 channels\r\nChannel positions : Front: L R\r\nSampling rate : 48.0 KHz\r\nBit depth : 16 bits\r\nCompression mode : Lossy\r\nStream size : 32.6 MiB (24%)\r\nLanguage : Japanese\r\n\r\nText #1\r\nID : 4\r\nFormat : ASS\r\nCodec ID : S_TEXT/ASS\r\nCodec ID/Info : Advanced Sub Station Alpha\r\nCompression mode : Lossless\r\nTitle : FFF - Honorifics\r\nLanguage : English\r\n\r\nText #2\r\nID : 5\r\nFormat : ASS\r\nCodec ID : S_TEXT/ASS\r\nCodec ID/Info : Advanced Sub Station Alpha\r\nCompression mode : Lossless\r\nTitle : FFF - Non Honorifics\r\nLanguage : English\r\n\r\nText #3\r\nID : 6\r\nFormat : ASS\r\nCodec ID : S_TEXT/ASS\r\nCodec ID/Info : Advanced Sub Station Alpha\r\nCompression mode : Lossless\r\nTitle : Signs/OP/ED\r\nLanguage : English\r\n\r\nMenu\r\n00:00:00.000 : en:Prologue\r\n00:00:54.054 : en:Opening\r\n00:02:24.019 : en:Part A\r\n00:10:47.063 : en:Eyecatch\r\n00:10:51.776 : en:Part B\r\n00:21:55.022 : en:Ending\r\n00:23:25.029 : en:Preview","torrent":{"xt":"urn:btih:922cafc4f69ee19cf44bf8fa18f62562c19678c5","amp;dn":"%5BShepardTDS%5D+Dusk+Maiden+of+Amnesia+Dual+Audio+%5B720p+8-bit+x265+","amp;tr":["udp%3A%2F%2Ftracker.leechers-paradise.org%3A6969","udp%3A%2F%2Fzer0day.ch%3A1337","udp%3A%2F%2Fopen.demonii.com%3A1337","udp%3A%2F%2Ftracker.coppersurfer.tk%3A6969","udp%3A%2F%2Fexodus.desync.com%3A6969"],"infoHash":"922cafc4f69ee19cf44bf8fa18f62562c19678c5","infoHashBuffer":{"type":"Buffer","data":[146,44,175,196,246,158,225,156,244,75,248,250,24,246,37,98,193,150,120,197]},"announce":[],"urlList":[]}}